<svg id="Group_26" data-name="Group 26" xmlns="http://www.w3.org/2000/svg" width="83.769" height="50.497" viewBox="0 0 83.769 50.497">
  <path id="Path_73" data-name="Path 73" d="M25.9,10.96l.036.04Z" transform="translate(17.538 -9.946)" fill="#116e38"/>
  <path id="Path_74" data-name="Path 74" d="M25.583,10.629Z" transform="translate(17.298 -10.197)" fill="#116e38"/>
  <path id="Path_75" data-name="Path 75" d="M25.844,10.9l.093.1Z" transform="translate(17.498 -9.987)" fill="#116e38"/>
  <path id="Path_76" data-name="Path 76" d="M81.052,47.232v2.926C53.317,21,45.749,13.045,44.04,11.25l.036.038-.119-.124.014.014-.045-.048-.3-.309.048.05-.064-.066.009.007-.012-.012a1.387,1.387,0,0,0-2,0C37.783,14.823,55.471-3.779,4.187,50.157V47.232H.735V58.144H4.187v-3.1h.057V54.8l9.613-10.238H15.7l5.051,13.046H18.808a1.63,1.63,0,1,0,0,3.261H66.425a1.63,1.63,0,1,0,0-3.261H64.461l5.168-13.046h1.754L80.966,54.77v.274h.086v3.1H84.5V47.232Zm-48.5,10.378L42.611,28.641,52.693,57.609Z" transform="translate(-0.735 -10.372)" fill="#116e38"/>
  <path id="Path_77" data-name="Path 77" d="M25.92,10.983Z" transform="translate(17.553 -9.929)" fill="#116e38"/>
  <path id="Path_78" data-name="Path 78" d="M25.892,10.954l-.278-.293.247.259Z" transform="translate(17.331 -10.163)" fill="#116e38"/>
</svg>
