<svg id="Group_27" data-name="Group 27" xmlns="http://www.w3.org/2000/svg" width="49.674" height="62.836" viewBox="0 0 49.674 62.836">
  <ellipse id="Ellipse_8" data-name="Ellipse 8" cx="5.551" cy="5.551" rx="5.551" ry="5.551" transform="translate(33.849 0)" fill="#116e38"/>
  <path id="Path_72" data-name="Path 72" d="M15.9,50.427a1.428,1.428,0,0,1,1.895-.692L43.4,61.657a3.543,3.543,0,0,1,.1-.784L46.3,49.643,30.576,51.184a3.585,3.585,0,0,1-3.491-1.872c-.076-.065-.156-.126-.23-.195a6.419,6.419,0,0,1-.311-9.072L38.386,27.364l-7.68-2.571-3,1.321a.713.713,0,0,1-.573-1.306l1.563-.688-1.08-.362a.713.713,0,1,1,.453-1.353l1.86.623L28.612,20.89a.713.713,0,1,1,1.215-.747l2.015,3.278a.719.719,0,0,1,.1.282l7.515,2.516L42.18,23.3a6.414,6.414,0,0,1,11.054,5.185l.422,2.488L58.2,32.5l2.863-1.037a2.853,2.853,0,1,1,1.943,5.364L52.894,40.488a2.853,2.853,0,0,1-3.784-2.205l-.516-3.041-7.205,7.716,9.242-.906a3.567,3.567,0,0,1,3.808,4.41L50.424,62.594A3.534,3.534,0,0,1,49.309,64.4l13.106,6.1c.329-1.375.412-3.878-1.695-7.124a1.426,1.426,0,1,1,2.393-1.553c4.258,6.563,1.4,11.185,1.274,11.378a1.426,1.426,0,0,1-1.8.524L16.592,52.322A1.425,1.425,0,0,1,15.9,50.427ZM54.163,33.96l1.884-.683-2.12-.71Z" transform="translate(-15.767 -11.029)" fill="#116e38"/>
</svg>
