<svg xmlns="http://www.w3.org/2000/svg" width="41.632" height="62.836" viewBox="0 0 41.632 62.836">
  <g id="noun_Hiking_81057" transform="translate(0)">
    <path id="Path_59" data-name="Path 59" d="M53.2,15.082A6.382,6.382,0,1,1,46.821,8.7,6.372,6.372,0,0,1,53.2,15.082Zm-16.26,8.206a2.438,2.438,0,0,0-2.127-3.115c-.912,0-2.811-.076-4.255-.076s-2.735.228-3.115,1.52L21.367,38.409a2.42,2.42,0,0,0,1.6,3.039l4.635,1.9a2.4,2.4,0,0,0,3.115-1.52Zm24.694,14.74-.608-.3V29.519H58.75v7.066L53.735,34.23,47.5,25.568a5.179,5.179,0,0,0-5.775-3.039c-2.735.38-3.723,3.419-4.407,6.762L35.5,38.181h0l-1.52,6.914a2.85,2.85,0,0,0-.076.76l-1.6,7.9L22.963,65.534a2.961,2.961,0,0,0,.532,4.255,3.167,3.167,0,0,0,1.824.684,3.1,3.1,0,0,0,2.431-1.14l9.726-12.385a3.656,3.656,0,0,0,.608-1.216l1.52-6.99,5.851,7.75.608,12.157a3,3,0,0,0,2.963,2.887h.228a3.052,3.052,0,0,0,2.887-3.191L51.455,55.2a2.655,2.655,0,0,0-.608-1.672L45.3,46.159l2.583-12.233,2.431,3.419a3.982,3.982,0,0,0,.836.76l7.522,3.571V70.624h2.279V42.284a2.065,2.065,0,0,0,1.672-1.292A2.123,2.123,0,0,0,61.637,38.029Z" transform="translate(-21.262 -8.7)" fill="#116e38"/>
  </g>
</svg>
