<svg id="Group_24" data-name="Group 24" xmlns="http://www.w3.org/2000/svg" width="62.836" height="62.836" viewBox="0 0 62.836 62.836">
  <circle id="Ellipse_7" data-name="Ellipse 7" cx="6.284" cy="6.284" r="6.284" transform="translate(28.276 0)" fill="#116e38"/>
  <g id="Group_19" data-name="Group 19" transform="translate(37.702 28.276)">
    <g id="Group_18" data-name="Group 18">
      <path id="Path_68" data-name="Path 68" d="M70.9,50.86a7.54,7.54,0,1,1-7.54,7.54,7.645,7.645,0,0,1,7.54-7.54m0-5.027A12.567,12.567,0,1,0,83.468,58.4,12.6,12.6,0,0,0,70.9,45.833Z" transform="translate(-58.333 -45.833)" fill="#116e38"/>
    </g>
  </g>
  <g id="Group_21" data-name="Group 21" transform="translate(0 37.701)">
    <g id="Group_20" data-name="Group 20" transform="translate(0 0)">
      <path id="Path_69" data-name="Path 69" d="M20.9,63.36a7.54,7.54,0,1,1-7.54,7.54,7.645,7.645,0,0,1,7.54-7.54m0-5.027A12.567,12.567,0,1,0,33.468,70.9,12.6,12.6,0,0,0,20.9,58.333Z" transform="translate(-8.333 -58.333)" fill="#116e38"/>
    </g>
  </g>
  <path id="Path_70" data-name="Path 70" d="M45.416,35.156,58.225,36.5l.659-6.249-10.59-1.114-9.847-7.386a3.735,3.735,0,0,0-5.655.629c-3.142,3.456-7.855,9.111-10.368,12.253-2.828,3.456-1.571,8.8,2.828,10.053l12.916,3.726,4.845,14.252,5.949-2.024-5.756-16.93L32.795,38.509l6.523-7.973Z" transform="translate(-11.428 -11.387)" fill="#116e38"/>
  <path id="Path_71" data-name="Path 71" d="M11.1,31.706h0c-2.2-1.571-2.2-4.713-.629-6.912l4.085-5.027a8.588,8.588,0,0,1,12.253-1.256l.628.628L18.011,31.077A4.687,4.687,0,0,1,11.1,31.706Z" transform="translate(-8.586 -10.342)" fill="#116e38"/>
</svg>
