<svg id="noun_Mountains_1629438" xmlns="http://www.w3.org/2000/svg" width="85.926" height="50.497" viewBox="0 0 85.926 50.497">
  <path id="Path_67" data-name="Path 67" d="M96.152,129.646,70.436,85.127a5.863,5.863,0,0,0-10.149,0L46.775,108.538,40.486,97.673a4.775,4.775,0,0,0-8.281,0L13.775,129.646,12,132.7H97.926Zm-56.039-22.2-1.526,1.806-3.611-2.833L32.8,107.449l-4.732,2.646,6.569-11.364a2.02,2.02,0,0,1,3.518,0L43.6,108.2Zm33.187-3.86-4.078,3.393-4.857-5.261-7.129,12.266.56-10.4c-.623,0-5.884,2.335-5.573,1.806L63.058,86.621a2.832,2.832,0,0,1,4.888,0l12.64,21.886Z" transform="translate(-12 -82.2)" fill="#116e38"/>
</svg>
