<svg xmlns="http://www.w3.org/2000/svg" width="58.623" height="59.892" viewBox="0 0 58.623 59.892">
  <g id="Group_30" data-name="Group 30" transform="translate(-11.932 -10.112)">
    <path id="Path_88" data-name="Path 88" d="M36.971,10.113a8.586,8.586,0,0,1,8.063,5.859,7.648,7.648,0,0,1-7,9.78A8.042,8.042,0,0,1,30,21.339a7.489,7.489,0,0,1,1.938-9.417A7.9,7.9,0,0,1,36.971,10.113Z" transform="translate(-4.086 0)" fill="#116e38" fill-rule="evenodd"/>
    <path id="Path_89" data-name="Path 89" d="M69.363,21.234c-4.328-.018-8.445.247-12.732.088a.626.626,0,0,1-.6-.624h0l.807-.7a.024.024,0,0,1,.018-.005,3.473,3.473,0,0,0,2.94-1.168,1.655,1.655,0,0,0,.065-2.554c-.258-.238-4.256-2.55-7.147-3.982a3.273,3.273,0,0,0-4.017.829,3.865,3.865,0,0,0-.834,1.875,21.639,21.639,0,0,0-.162,2.474,1.951,1.951,0,0,0,1.889,2.089c1.481.111,2.966.2,4.451.285a.618.618,0,0,1,.575.723l-.047.269a.614.614,0,0,1-.613.512c-2.513-.037-5.146.034-7.727.03a1.9,1.9,0,0,0-1.905,1.966c.015.435.03.869.024,1.3a.625.625,0,0,0,.659.642l.22-.016a.62.62,0,0,1,.656.674,7.034,7.034,0,0,1-.414,2.343c-.751,1.616-2.373,4.6-3.384,6.426a1.024,1.024,0,0,1-1.769.032c-1.18-1.934-2.336-3.828-3.491-5.72a3.659,3.659,0,0,0-2.265-1.646L27.78,25.75A3.239,3.239,0,0,0,24.265,27.2c-1.01,1.634-2.434,4.044-3.912,6.6a.653.653,0,0,1-.887.239l-1.885-1.08a1.663,1.663,0,0,0-2.251.6,58.987,58.987,0,0,0-3.112,5.969,3.446,3.446,0,0,0,1.27,4.245c.16.106.315.2.461.277a.623.623,0,0,1,.252.826l-.012.024a1.661,1.661,0,0,0,.373,1.994c2.276,2.029,8.172,7.253,9.985,8.86a.641.641,0,0,1,0,.96L14.355,65.84a2.3,2.3,0,0,0-.639,2.465h0a2.3,2.3,0,0,0,3.672.988c4.368-3.757,10.113-8.925,14.225-11.966a.663.663,0,0,0,.168-.881l-.462-.754a.643.643,0,0,1,.872-.891,20.309,20.309,0,0,1,3.028,1.992c.3.675,3.381,8.338,4.976,12.262a2.218,2.218,0,0,0,3.11,1.115l.024-.012a2.223,2.223,0,0,0,1.026-2.743L38.263,51.332a.647.647,0,0,0-.354-.367L25.619,45.782a.659.659,0,0,1-.284-.981l6.436-9.238a.652.652,0,0,1,.933-.141c3.007,2.336,5.949,4.623,8.943,6.952a.658.658,0,0,0,.974-.2c.824-1.463,1.6-2.845,2.4-4.256a.651.651,0,0,1,.923-.226l3.9,2.554a.65.65,0,0,0,.919-.208c1.351-2.287,6.023-10.417,6.087-10.892.17-1.244.448-3.8.584-4.954a.634.634,0,0,1,.631-.565h11.32a1.171,1.171,0,0,0,1.171-1.193v-.022A1.2,1.2,0,0,0,69.363,21.234ZM52.482,30.112c-1.277,1.264-2.38,2.706-3.6,4.162a.647.647,0,0,1-.755.175l-.7-.309a.66.66,0,0,1-.338-.852c.623-1.506,1.223-2.955,1.814-4.385a.616.616,0,0,1,.421-.364l.3-.075a.616.616,0,0,0,.46-.5l.376-2.238a.637.637,0,0,1,.627-.534h2.687a.635.635,0,0,1,.61.8A8.328,8.328,0,0,1,52.482,30.112Z" transform="translate(0 -0.434)" fill="#116e38" fill-rule="evenodd"/>
  </g>
</svg>
