<svg id="Group_29" data-name="Group 29" xmlns="http://www.w3.org/2000/svg" width="50.165" height="60.097" viewBox="0 0 50.165 60.097">
  <path id="Path_79" data-name="Path 79" d="M20.11,8.09,15.487,3,7.628,1.387,0,0V60.1H46.46l.693-4.623-8.09-3.929-5.085-2.08-7.4-1.387-3.236-9.015-4.623-3-6.472-6.241,3.236-12.944,1.387-4.854,2.543-.925Z" fill="#116e38" fill-rule="evenodd"/>
  <path id="Path_80" data-name="Path 80" d="M70.849,89.462,69.693,89,69,89.693l.231.925L70.387,92l.693-.925.693-.925Z" transform="translate(-53.051 -68.428)" fill="#116e38" fill-rule="evenodd"/>
  <path id="Path_81" data-name="Path 81" d="M91.925,50.231,91.231,50,91,50.693l.693.693.462-.231.231-.693Z" transform="translate(-69.966 -38.443)" fill="#116e38" fill-rule="evenodd"/>
  <path id="Path_82" data-name="Path 82" d="M96.236,151.311l-.462-1.849L94.849,149h-.925l-.925.462v1.618l.462,1.156,1.849.231Z" transform="translate(-71.504 -114.56)" fill="#116e38" fill-rule="evenodd"/>
  <path id="Path_83" data-name="Path 83" d="M74.925,63h-.693L74,63.462l.693.693.462-.231.231-.693Z" transform="translate(-56.895 -48.438)" fill="#116e38" fill-rule="evenodd"/>
  <path id="Path_84" data-name="Path 84" d="M180.156,218l-1.156.693v.925l.462.462h.925l.693-.462-.231-1.156Z" transform="translate(-137.625 -167.611)" fill="#116e38" fill-rule="evenodd"/>
  <g id="Group_28" data-name="Group 28" transform="translate(17.099 10.774)">
    <circle id="Ellipse_9" data-name="Ellipse 9" cx="4.087" cy="4.087" r="4.087" transform="translate(9.166 5.779) rotate(-45)" fill="#116e38"/>
    <path id="Path_85" data-name="Path 85" d="M107.028,110.406a63.982,63.982,0,0,0-6.865-21.048l-3.472-9.632a2.265,2.265,0,0,0-2.9-1.363l-4.725,1.7a10.688,10.688,0,0,1-8.653-3.51,1.855,1.855,0,0,0-2.7,2.547,14.315,14.315,0,0,0,7.311,4.28,10.2,10.2,0,0,1-8.978,3.006,1.855,1.855,0,1,0-.442,3.683,17.228,17.228,0,0,0,2.054.126,13.89,13.89,0,0,0,10.146-4.33l2.634,7.308c-.224.159-.448.314-.671.467-1.587,1.091-3.385,2.328-3.582,4.652-.194,2.285,1.292,4.739,5.127,8.471a2.318,2.318,0,1,0,3.233-3.323c-3.393-3.3-3.711-4.487-3.738-4.726A8.486,8.486,0,0,1,92.4,97.465,19.032,19.032,0,0,0,95.451,95l2-.719a57.671,57.671,0,0,1,4.971,16.616,2.319,2.319,0,0,0,2.3,2.072,2.4,2.4,0,0,0,.25-.013A2.319,2.319,0,0,0,107.028,110.406Z" transform="translate(-73.975 -69.189)" fill="#116e38"/>
    <path id="Path_86" data-name="Path 86" d="M177.316,93.971c-.925-2.543-1.849-5.085-3-7.859-.462-.462-1.387-.231-2.311,0l3.467,9.708C176.392,95.358,177.547,95.358,177.316,93.971Z" transform="translate(-149.342 -76.777)" fill="#116e38"/>
  </g>
</svg>
