<svg xmlns="http://www.w3.org/2000/svg" width="56.4" height="62.836" viewBox="0 0 56.4 62.836">
  <path id="Path_87" data-name="Path 87" d="M138.964,111.5a1.632,1.632,0,1,1-1.636,1.634,1.634,1.634,0,0,1,1.636-1.634m0-4.81a1.261,1.261,0,1,0-1.263-1.266,1.271,1.271,0,0,0,1.263,1.266M89.291,118.125a1.633,1.633,0,0,0-1.837,2.7,10.608,10.608,0,0,0,5.083,1.826H108.13a1.63,1.63,0,1,0,0-3.259H92.537a7.361,7.361,0,0,1-3.246-1.268m29.478,1.022a1.634,1.634,0,0,0,.31,3.236,1.826,1.826,0,0,0,.307-.027,10.615,10.615,0,0,0,4.887-2.31l11.021-11.03a1.631,1.631,0,1,0-2.306-2.308l-11.025,11.03a7.409,7.409,0,0,1-3.194,1.408m-14.886-47.91a5.711,5.711,0,1,0-5.72-5.714,5.714,5.714,0,0,0,5.72,5.714M84.624,78.721a1.091,1.091,0,0,1,1.526.2l1.813,2.364A3.482,3.482,0,0,1,89.291,81H97.05l9.644-7.432a5.184,5.184,0,0,1,8.146,2.464l4.71,11.627a7.414,7.414,0,0,1,.19,3.424l-1,11.3L126.6,109.7l-4.618,4.618-8.842-8.239a3.166,3.166,0,0,1-1.013-2.064l-.509-5.694-5.953,6.017,9.7,12.628a1.083,1.083,0,0,1-.859,1.754,1.08,1.08,0,0,1-.873-.429l-9.158-11.925V117.1H97.948V104.193a3.205,3.205,0,0,1,.764-2.093l1.309-1.553L90.012,87.531h-.721a3.241,3.241,0,0,1-2.9-4.728l-1.962-2.561a1.08,1.08,0,0,1,.2-1.521M101.451,98.85l7.366-8.718-3.079-7.588-5.583,4.308a3.279,3.279,0,0,1-1.994.678h-5.4Z" transform="translate(-84.2 -59.816)" fill="#116e38"/>
</svg>
