<svg id="Group_23" data-name="Group 23" xmlns="http://www.w3.org/2000/svg" width="13.286" height="16.806" viewBox="0 0 13.286 16.806">
  <ellipse id="Ellipse_8" data-name="Ellipse 8" cx="1.485" cy="1.485" rx="1.485" ry="1.485" transform="translate(9.053 0)" fill="#116e38"/>
  <path id="Path_72" data-name="Path 72" d="M15.8,27.993a.382.382,0,0,1,.507-.185L23.158,31a.948.948,0,0,1,.027-.21l.747-3-4.2.412a.959.959,0,0,1-.934-.5c-.02-.017-.042-.034-.062-.052a1.717,1.717,0,0,1-.083-2.426l3.167-3.392-2.054-.688-.8.353a.191.191,0,0,1-.153-.349l.418-.184-.289-.1a.191.191,0,1,1,.121-.362l.5.167-.352-.572a.191.191,0,1,1,.325-.2l.539.877a.192.192,0,0,1,.026.075l2.01.673.729-.781a1.715,1.715,0,0,1,2.956,1.387l.113.666,1.217.407.766-.277a.763.763,0,1,1,.52,1.435l-2.706.98a.763.763,0,0,1-1.012-.59l-.138-.813L22.619,26l2.472-.242a.954.954,0,0,1,1.019,1.18l-1.074,4.315a.945.945,0,0,1-.3.484l3.505,1.632a2.431,2.431,0,0,0-.453-1.905.381.381,0,1,1,.64-.415,2.833,2.833,0,0,1,.341,3.043.381.381,0,0,1-.482.14L15.988,28.5A.381.381,0,0,1,15.8,27.993Zm10.233-4.4.5-.183-.567-.19Z" transform="translate(-15.767 -17.456)" fill="#116e38"/>
</svg>
