<svg xmlns="http://www.w3.org/2000/svg" xmlns:xlink="http://www.w3.org/1999/xlink" width="128" height="127.662" viewBox="0 0 128 127.662">
  <defs>
    <clipPath id="clip-path">
      <path id="Path_2" data-name="Path 2" d="M101.471,84.026a49.385,49.385,0,1,0,67.277,18.753A49.441,49.441,0,0,0,101.471,84.026Z" transform="translate(-76.356 -77.665)" fill="#fff"/>
    </clipPath>
  </defs>
  <g id="Group_10" data-name="Group 10" transform="translate(-4.719 -6.028)">
    <path id="Path_60" data-name="Path 60" d="M1.027-11.424A6.394,6.394,0,0,0-3.59-9.6a6,6,0,0,0-1.884,4.5A6.017,6.017,0,0,0-3.6-.611,6.363,6.363,0,0,0,1.008,1.208,6.345,6.345,0,0,0,4.185.4,5.705,5.705,0,0,0,6.4-1.82L4.517-3.15A3.956,3.956,0,0,1,1.027-1.1,3.81,3.81,0,0,1-1.8-2.218,3.9,3.9,0,0,1-2.907-5.089,3.96,3.96,0,0,1-1.8-7.989,3.794,3.794,0,0,1,1.027-9.115a3.956,3.956,0,0,1,3.491,2.05L6.4-8.4a5.854,5.854,0,0,0-2.225-2.225A6.257,6.257,0,0,0,1.027-11.424Z" transform="translate(62.374 69.672)" fill="#fff"/>
    <g id="Group_2" data-name="Group 2" transform="translate(13.976 15.285)">
      <g id="Group_1" data-name="Group 1" transform="translate(0)" clip-path="url(#clip-path)">
        <path id="Path_1" data-name="Path 1" d="M216.4,527.072l-41.34,34.291q.879.907,1.865,1.82l39.285-32.871-.409,4.243-.008-.026-2.038,13.32,5.62,7.054.147,1.553-1.892,6.433.646,6.818-.711,5.7.1.351c22.263-1.131,35.932-19.9,35.932-19.9Zm12.185,19.266-2.615,5.4-3.123-13.15L238.1,550.26Z" transform="translate(-162.302 -469)" fill="#fff"/>
      </g>
    </g>
    <g id="Group_4" data-name="Group 4" transform="translate(22.855 61.182)">
      <g id="Group_3" data-name="Group 3">
        <path id="Path_3" data-name="Path 3" d="M152.685,811.417l-4.578-2.934a6.4,6.4,0,0,1-2.879-3.168,4.2,4.2,0,0,1,.716-3.617l3.739-5.835a4.23,4.23,0,0,1,2.993-2.171,6.36,6.36,0,0,1,4.088,1.283l4.578,2.934a.687.687,0,0,1,.243,1.108l-1.455,2.27a.687.687,0,0,1-1.108.243l-3.771-2.417a1.58,1.58,0,0,0-1.013-.319,1.026,1.026,0,0,0-.732.523l-2.861,4.466a.959.959,0,0,0-.157.865,1.679,1.679,0,0,0,.725.769l3.771,2.417a.687.687,0,0,1,.243,1.108l-1.431,2.233a.687.687,0,0,1-1.108.243Zm.17-2.538-3.133-2.008q-1.688-1.082-1.927-1.949a2.655,2.655,0,0,1,.543-2.087l3.366-5.253a2.674,2.674,0,0,1,1.706-1.382,4.144,4.144,0,0,1,2.563.915l3.133,2.008.12-.188-3.133-2.008a4.332,4.332,0,0,0-2.762-.976,2.982,2.982,0,0,0-1.815,1.51l-3.366,5.253a2.944,2.944,0,0,0-.6,2.236q.23.942,2.05,2.108l3.133,2.008Z" transform="translate(-145.068 -747.039)" fill="#fff"/>
        <path id="Path_4" data-name="Path 4" d="M255.367,853.267l-9.781-3.352a.687.687,0,0,1-.5-1.019l4.681-13.66a.687.687,0,0,1,1.019-.5l9.781,3.352a.687.687,0,0,1,.5,1.019l-.845,2.466a.687.687,0,0,1-1.019.5l-5.818-1.994-.556,1.623,4.111,1.409a.687.687,0,0,1,.5,1.019l-.773,2.256a.687.687,0,0,1-1.019.5l-4.111-1.409-.621,1.813,5.818,1.994a.687.687,0,0,1,.5,1.019l-.845,2.466a.687.687,0,0,1-1.019.5Zm-.416-2.5-6.893-2.362,1.871-5.46,5.186,1.777.072-.211L250,842.736l1.813-5.291,6.893,2.362.072-.211-7.1-2.434-3.9,11.384,7.1,2.434Z" transform="translate(-232.098 -782.741)" fill="#fff"/>
        <path id="Path_5" data-name="Path 5" d="M379.306,882.343l-7.492-.52a.687.687,0,0,1-.745-.856l1-14.405a.687.687,0,0,1,.856-.745l7.492.52a6.406,6.406,0,0,1,4.047,1.4,4.2,4.2,0,0,1,1.107,3.517l-.481,6.936a4.2,4.2,0,0,1-1.583,3.33A6.4,6.4,0,0,1,379.306,882.343Zm-5.73-2.408,5.38.373a6.064,6.064,0,0,0,1.861-.105,2.581,2.581,0,0,0,1.133-.558,1.992,1.992,0,0,0,.566-.921,5.607,5.607,0,0,0,.206-1.192l.409-5.891a5.292,5.292,0,0,0-.049-1.221,2.152,2.152,0,0,0-.443-1.014,2.6,2.6,0,0,0-1.033-.731,5.7,5.7,0,0,0-1.817-.372l-5.38-.374Zm6.2-11.409a5.425,5.425,0,0,1,1.685.34,2.447,2.447,0,0,1,.97.671,2.027,2.027,0,0,1,.426.945,4.669,4.669,0,0,1,.055,1.143l-.409,5.891a4.944,4.944,0,0,1-.2,1.114,1.867,1.867,0,0,1-.54.856,2.418,2.418,0,0,1-1.052.508,5.765,5.765,0,0,1-1.737.092l-5.157-.358.8-11.56Zm-2.9,1.832-.525,7.558L379,878.1a1.05,1.05,0,0,0,.808-.212,1.156,1.156,0,0,0,.313-.8l.375-5.4a1.114,1.114,0,0,0-.2-.829,1.079,1.079,0,0,0-.771-.31Z" transform="translate(-341.862 -809.866)" fill="#fff"/>
        <path id="Path_6" data-name="Path 6" d="M512.506,872.029a.687.687,0,0,1-.618.951l-3.2.681a.687.687,0,0,1-.951-.618l-1.222-5.755a6.584,6.584,0,0,1-.112-1.548,16.918,16.918,0,0,1,.222-2.12l.846-5.351a1.046,1.046,0,0,1,.287-.63,1.323,1.323,0,0,1,.671-.325l5.864-1.245a1.279,1.279,0,0,1,.724.029,1.047,1.047,0,0,1,.519.459l2.947,4.545a17.013,17.013,0,0,1,1.064,1.847,6.588,6.588,0,0,1,.526,1.46l1.222,5.754a.687.687,0,0,1-.618.952l-3.292.7a.963.963,0,0,1-.682-.049.784.784,0,0,1-.334-.556l-.648-3.052-3.858.819Zm6.006-2.505.218-.046-.986-4.643a6.113,6.113,0,0,0-.336-1.1,6.616,6.616,0,0,0-.483-.934l-2.259-3.234a5.471,5.471,0,0,0-.778-.928,1.185,1.185,0,0,0-1.1-.2l-2.136.454a1.242,1.242,0,0,0-.958.636,4.589,4.589,0,0,0-.327,1.14l-.636,3.871a6.569,6.569,0,0,0-.062,1.05,6.137,6.137,0,0,0,.14,1.143l.986,4.643.218-.046-.8-3.749,8.5-1.805Zm-9.487-2.838a5.817,5.817,0,0,1-.133-1.111,6.936,6.936,0,0,1,.052-.991l.636-3.871a4.891,4.891,0,0,1,.283-1.028,1.054,1.054,0,0,1,.835-.576l2.136-.454a1,1,0,0,1,.953.2,5.56,5.56,0,0,1,.7.842l2.259,3.234a6.956,6.956,0,0,1,.45.884,5.806,5.806,0,0,1,.329,1.069l.144.676-8.5,1.805Zm2.53-5.253-.321,3.531,3.422-.727-1.728-3.1a.853.853,0,0,0-.245-.244.343.343,0,0,0-.247-.039l-.545.116a.341.341,0,0,0-.21.136A.844.844,0,0,0,511.555,861.433Z" transform="translate(-459.703 -801.347)" fill="#fff"/>
        <path id="Path_7" data-name="Path 7" d="M617.738,827.583l-3.033,1.606a.687.687,0,0,1-1.084-.333l-6.758-12.761a.687.687,0,0,1,.334-1.084l6.558-3.473q2.205-1.168,3.528-.7a3.825,3.825,0,0,1,2.094,1.93l.48.906a4.077,4.077,0,0,1,.5,1.538,1.735,1.735,0,0,1-.413,1.291,2.932,2.932,0,0,1,2.182-.046,3.28,3.28,0,0,1,1.713,1.64l2.211,4.175a.687.687,0,0,1-.333,1.085l-3.052,1.616a.687.687,0,0,1-1.084-.333l-1.6-3.013a1.144,1.144,0,0,0-.506-.551.8.8,0,0,0-.69.1l-2.757,1.46,2.044,3.86a.687.687,0,0,1-.334,1.084Zm-2.356-1.021-2.419-4.569,5.573-2.951a2.722,2.722,0,0,1,1.91-.393,2.1,2.1,0,0,1,1.3,1.166l1.4,2.639.2-.1-1.4-2.639a2.283,2.283,0,0,0-1.42-1.253,2.918,2.918,0,0,0-2.079.408l-.217.115a1.562,1.562,0,0,0,.523-1.3,4.508,4.508,0,0,0-.551-1.612l-.72-1.359a2.686,2.686,0,0,0-1.4-1.313,2.4,2.4,0,0,0-2.032.257l-4.49,2.378,5.632,10.634Zm-1.234-12.711A2.21,2.21,0,0,1,616,813.6a2.438,2.438,0,0,1,1.284,1.211l.73,1.379a3.273,3.273,0,0,1,.473,1.893q-.1.81-1.322,1.456l-4.293,2.273-3.014-5.691Zm-1.332,2.723,1.335,2.521,1.477-.782q.512-.271.549-.631a1.317,1.317,0,0,0-.172-.754l-.355-.669a1.316,1.316,0,0,0-.527-.566.874.874,0,0,0-.83.1Z" transform="translate(-547.067 -761.879)" fill="#fff"/>
        <path id="Path_8" data-name="Path 8" d="M726.628,742.448l-8.083,7.538a.687.687,0,0,1-1.134-.039l-2.037-2.184a1.941,1.941,0,0,1-.411-.637,2.158,2.158,0,0,1-.123-.753l-.523-8.5-3.488,3.252a.687.687,0,0,1-1.134-.039l-1.839-1.972a.687.687,0,0,1,.039-1.134l7.5-6.991a.687.687,0,0,1,1.134.04l2.265,2.428a2,2,0,0,1,.427.653,2.156,2.156,0,0,1,.123.753l.49,8.105,3.895-3.632a.687.687,0,0,1,1.134.039l1.809,1.939a.687.687,0,0,1-.039,1.134Zm-9.979-7.27a3.776,3.776,0,0,0-.07-.468.841.841,0,0,0-.215-.394l-.243-.261a.792.792,0,0,0-.5-.293.688.688,0,0,0-.5.227l-4.971,4.635.152.163,4.971-4.635a.556.556,0,0,1,.3-.147.476.476,0,0,1,.387.2l.213.228a.707.707,0,0,1,.186.314,3.277,3.277,0,0,1,.057.4l.94,10.581a3.626,3.626,0,0,0,.07.468.84.84,0,0,0,.215.394l.243.261a.792.792,0,0,0,.5.293.686.686,0,0,0,.5-.227l5.492-5.122-.152-.163-5.492,5.122a.554.554,0,0,1-.3.147c-.117.017-.245-.051-.387-.2l-.213-.228a.7.7,0,0,1-.186-.314,3.2,3.2,0,0,1-.057-.4Z" transform="translate(-634.889 -692.219)" fill="#fff"/>
        <path id="Path_9" data-name="Path 9" d="M793.674,668.834a.687.687,0,0,1-1.111.231l-2.217-1.454a.687.687,0,0,1-.231-1.111l1.21-1.845-6.261-4.107-1.21,1.845a.687.687,0,0,1-1.111.231l-2.254-1.479a.687.687,0,0,1-.231-1.111l5.207-7.937a.687.687,0,0,1,1.111-.231l2.255,1.479a.687.687,0,0,1,.231,1.111l-1.186,1.807,6.26,4.107,1.186-1.807a.687.687,0,0,1,1.111-.231l2.217,1.455a.687.687,0,0,1,.231,1.111Zm2.87-8.031-.186-.122-1.87,2.851-9.689-6.356,1.87-2.851-.186-.122-3.887,5.925.186.122,1.895-2.888,9.689,6.356-1.895,2.888.186.122Z" transform="translate(-698.016 -623.4)" fill="#fff"/>
        <path id="Path_10" data-name="Path 10" d="M848.246,556.831,847.174,560a.687.687,0,0,1-1.017.5l-13.677-4.633a.687.687,0,0,1-.5-1.017l.744-2.195a1.773,1.773,0,0,1,.359-.643,1.739,1.739,0,0,1,.633-.409l6.073-2.507-4.5-1.523a.687.687,0,0,1-.5-1.017l1.072-3.166a.687.687,0,0,1,1.017-.5l13.676,4.633a.687.687,0,0,1,.5,1.017l-1.073,3.166a.687.687,0,0,1-1.017.5l-2.6-.879-5.591,2.129,6.965,2.359a.687.687,0,0,1,.5,1.017Zm-13.514-3.307a1.339,1.339,0,0,0-.205.119.276.276,0,0,0-.092.133.3.3,0,0,0,.006.19.234.234,0,0,0,.162.149l11.165,3.782.072-.211-11.123-3.768a.1.1,0,0,1-.039-.025.036.036,0,0,1-.01-.039.111.111,0,0,1,.039-.046.406.406,0,0,1,.06-.039l11.652-4.947,2.174.736.071-.211-11.4-3.861-.071.211,8.907,3.017Z" transform="translate(-743.152 -528.604)" fill="#fff"/>
        <path id="Path_11" data-name="Path 11" d="M884.6,434.071l-.381,7.009a6.4,6.4,0,0,1-1.337,4.067,4.2,4.2,0,0,1-3.5,1.16l-6.942-.378a4.2,4.2,0,0,1-3.354-1.533,6.4,6.4,0,0,1-.888-4.188l.3-5.563a.687.687,0,0,1,.845-.757l2.693.146a.687.687,0,0,1,.757.845l-.252,4.628a1.578,1.578,0,0,0,.222,1.039,1.026,1.026,0,0,0,.816.379l5.318.289a1.154,1.154,0,0,0,.837-.211,1.016,1.016,0,0,0,.309-.753l.117-2.158L876.7,437.9a.687.687,0,0,1-.757-.845l.188-3.449a.687.687,0,0,1,.845-.757l6.875.374a.687.687,0,0,1,.758.845Zm-2.332,5.943.241-4.428-4.473-.243-.012.223,4.25.231L882.049,440a5.255,5.255,0,0,1-.765,2.982,2.453,2.453,0,0,1-2.089.656l-6.23-.339a2.674,2.674,0,0,1-2.043-.8,4.141,4.141,0,0,1-.468-2.681l.209-3.849-.222-.012-.209,3.849a4.333,4.333,0,0,0,.512,2.884,2.984,2.984,0,0,0,2.209.834l6.23.339a4.572,4.572,0,0,0,1.333-.095,1.744,1.744,0,0,0,.923-.563,2.911,2.911,0,0,0,.567-1.2A10.529,10.529,0,0,0,882.271,440.014Z" transform="translate(-774.742 -432.85)" fill="#fff"/>
      </g>
    </g>
    <g id="Group_5" data-name="Group 5" transform="translate(86.398 53.869)">
      <path id="Path_12" data-name="Path 12" d="M683.846,394.408l1.05.473a31.576,31.576,0,0,0-.9-18.619l-.941.738A30.449,30.449,0,0,1,683.846,394.408Z" transform="translate(-677.081 -376.262)" fill="#fff"/>
      <path id="Path_13" data-name="Path 13" d="M643.085,530.411a30.548,30.548,0,0,1-6.272,11.183l.9.7a31.683,31.683,0,0,0,6.515-11.74Z" transform="translate(-636.813 -510.492)" fill="#fff"/>
    </g>
    <g id="Group_6" data-name="Group 6" transform="translate(90.181 50.792)">
      <path id="Path_14" data-name="Path 14" d="M714.785,375.66l1.047.472a36.328,36.328,0,0,0-1.382-23.682l-.93.729A35.2,35.2,0,0,1,714.785,375.66Z" transform="translate(-707.391 -352.45)" fill="#fff"/>
      <path id="Path_15" data-name="Path 15" d="M673.377,534.912a35.343,35.343,0,0,1-7.291,13.529l.9.7a36.488,36.488,0,0,0,7.533-14.086Z" transform="translate(-666.086 -511.334)" fill="#fff"/>
    </g>
    <path id="Path_16" data-name="Path 16" d="M268.181,611.719l-1.119.424a31.531,31.531,0,0,0,5.836,5.586l.9-.747A30.4,30.4,0,0,1,268.181,611.719Z" transform="translate(-228.443 -527.424)" fill="#fff"/>
    <path id="Path_17" data-name="Path 17" d="M232.062,625.442l-1.1.419a36.331,36.331,0,0,0,6.731,6.946l.894-.741A35.191,35.191,0,0,1,232.062,625.442Z" transform="translate(-197.004 -539.374)" fill="#fff"/>
    <path id="Path_18" data-name="Path 18" d="M214.016,399.673l-1.05-.473a31.578,31.578,0,0,0,.9,18.619l.941-.738A30.45,30.45,0,0,1,214.016,399.673Z" transform="translate(-180.474 -342.367)" fill="#fff"/>
    <path id="Path_19" data-name="Path 19" d="M177.433,384.306l-1.047-.472a36.331,36.331,0,0,0,1.382,23.682l.93-.729A35.2,35.2,0,0,1,177.433,384.306Z" transform="translate(-148.303 -328.986)" fill="#fff"/>
    <path id="Path_20" data-name="Path 20" d="M233.148,268.365a31.582,31.582,0,0,0-10.4,15.468l1.144.139a30.454,30.454,0,0,1,9.682-14.487Z" transform="translate(-189.854 -228.438)" fill="#fff"/>
    <path id="Path_21" data-name="Path 21" d="M199.035,232.276a36.332,36.332,0,0,0-13.434,19.55l1.14.138a35.2,35.2,0,0,1,12.713-18.583Z" transform="translate(-157.508 -197.012)" fill="#fff"/>
    <g id="Group_7" data-name="Group 7" transform="translate(52.563 32.81)">
      <path id="Path_22" data-name="Path 22" d="M393.114,215.33l.473-1.05a31.582,31.582,0,0,0-18.618.9l.737.94a30.35,30.35,0,0,1,10.008-1.7A30.792,30.792,0,0,1,393.114,215.33Z" transform="translate(-374.969 -213.29)" fill="#fff"/>
      <path id="Path_23" data-name="Path 23" d="M529.242,224.055,529.1,225.2a30.449,30.449,0,0,1,14.49,9.681l1.118-.424A31.577,31.577,0,0,0,529.242,224.055Z" transform="translate(-509.187 -222.664)" fill="#fff"/>
    </g>
    <g id="Group_8" data-name="Group 8" transform="translate(49.485 28.036)">
      <path id="Path_24" data-name="Path 24" d="M374.354,178.762l.478-1.062a36.332,36.332,0,0,0-23.681,1.383l.73.931a35.217,35.217,0,0,1,13.079-2.514A35.686,35.686,0,0,1,374.354,178.762Z" transform="translate(-351.152 -176.345)" fill="#fff"/>
      <path id="Path_25" data-name="Path 25" d="M533.732,186.91l-.14,1.156a35.4,35.4,0,0,1,18.585,12.7l1.107-.419A36.331,36.331,0,0,0,533.732,186.91Z" transform="translate(-510.017 -185.545)" fill="#fff"/>
    </g>
    <path id="Path_26" data-name="Path 26" d="M388.442,373.5a11.932,11.932,0,1,0-12.526,17.6l1.685-1.4a10.351,10.351,0,1,1,7.29-2.572l1.269.983A11.935,11.935,0,0,0,388.442,373.5Z" transform="translate(-314.697 -314.698)" fill="#fff"/>
    <g id="Group_9" data-name="Group 9" transform="translate(4.719 6.028)">
      <path id="Path_27" data-name="Path 27" d="M210.336,19.839l26.978,47.832h0a10.328,10.328,0,0,1,3.45-1.207L243,61.5Z" transform="translate(-183.766 -18.054)" fill="#fff"/>
      <path id="Path_28" data-name="Path 28" d="M376.5,433.8l.62.173c.06-.215.129-.427.2-.637l-.823.464Z" transform="translate(-328.456 -378.118)" fill="#fff"/>
      <path id="Path_29" data-name="Path 29" d="M599.44,211.643Z" transform="translate(-483.958 -185.074)" fill="#fff"/>
      <path id="Path_31" data-name="Path 31" d="M479.982,378.426c.215.06.426.129.637.2l-.464-.823Z" transform="translate(-418.569 -329.765)" fill="#fff"/>
      <path id="Path_32" data-name="Path 32" d="M18.53,487.812l47.831-26.978h0a10.328,10.328,0,0,1-1.207-3.451L60.2,455.151Z" transform="translate(-16.745 -397.116)" fill="#fff"/>
      <path id="Path_33" data-name="Path 33" d="M214.59,391.793l-1.393-3.677-20.865-2.528h0l22.258,6.2Z" transform="translate(-168.088 -336.542)" fill="#fff"/>
      <path id="Path_34" data-name="Path 34" d="M203.05,6.92l.5.892,32.661,41.666.143-.318L202.546,6.028l19.421,51.248.173.021Z" transform="translate(-176.983 -6.028)" fill="#fff"/>
      <path id="Path_35" data-name="Path 35" d="M355.322,408.728l-1.348-3.556-.173-.021,1.393,3.677Z" transform="translate(-308.693 -353.576)" fill="#fff"/>
      <path id="Path_36" data-name="Path 36" d="M375.986,432.3l.823-.464c.026-.074.052-.148.079-.222l-.978.552Z" transform="translate(-327.945 -376.623)" fill="#fff"/>
      <path id="Path_37" data-name="Path 37" d="M367.88,431.746l-.438.343.749.209Z" transform="translate(-320.571 -376.735)" fill="#fff"/>
      <path id="Path_39" data-name="Path 39" d="M355.14,405.312l1.348,3.556.772-.605.564,1,.978-.552a10.348,10.348,0,0,1,1.557-2.767Z" transform="translate(-309.859 -353.717)" fill="#fff"/>
      <path id="Path_40" data-name="Path 40" d="M364.585,428.854l.369.1.438-.343.311.552.421.117h0l-.076-.134-.564-1-.772.605-.127.1Z" transform="translate(-318.083 -373.603)" fill="#fff"/>
      <path id="Path_41" data-name="Path 41" d="M60.816,466.429,5.611,487.351l.892-.5L48.17,454.186l-.318-.143L4.719,487.854l56.152-21.28.168-.064-1.1-1.957c-.074-.026-.148-.052-.222-.079Z" transform="translate(-4.719 -396.151)" fill="#fff"/>
      <path id="Path_43" data-name="Path 43" d="M484.242,356.687l3.708-1.405.021-.173-3.677,1.393Z" transform="translate(-422.278 -310.001)" fill="#fff"/>
      <path id="Path_44" data-name="Path 44" d="M565.832,204.357l-.892.5-41.666,32.661.318.143,43.133-33.811-51.249,19.422-.021.173Z" transform="translate(-449.458 -178.29)" fill="#fff"/>
      <path id="Path_45" data-name="Path 45" d="M481.378,376.178l-.059.21.464.822c.074.026.148.052.222.079Z" transform="translate(-419.733 -328.347)" fill="#fff"/>
      <path id="Path_46" data-name="Path 46" d="M485.8,356.449l-3.708,1.405L481.773,359l.627,1.112a10.349,10.349,0,0,1,2.767,1.556Z" transform="translate(-420.128 -311.168)" fill="#fff"/>
      <path id="Path_47" data-name="Path 47" d="M561.283,207.749,510.906,226.84l-.675,5.571a10.329,10.329,0,0,1,2.329,2.818h0l47.831-26.978Z" transform="translate(-444.909 -181.683)" fill="#fff"/>
      <path id="Path_48" data-name="Path 48" d="M203.2,393.1c-.01-.06-.017-.12-.025-.18l-25.127-11.316.987.275h0l20.865,2.528.173.021,5.219.632c.075-.1.151-.19.23-.283l-5.572-.675-.173-.021-22.715-2.752,20.863,9.4.318.143Z" transform="translate(-154.788 -332.835)" fill="#fff"/>
      <path id="Path_50" data-name="Path 50" d="M527.228,449.5l-.318-.143-4.958-2.233c.01.06.017.12.025.181L547.1,458.616l-.987-.275-26.257-3.181c-.075.1-.151.19-.23.283l28.46,3.448Z" transform="translate(-453.094 -390.121)" fill="#fff"/>
      <path id="Path_51" data-name="Path 51" d="M535.64,452.752l24.418,6.807.987.275-25.127-11.316A10.36,10.36,0,0,1,535.64,452.752Z" transform="translate(-467.035 -391.34)" fill="#fff"/>
      <path id="Path_52" data-name="Path 52" d="M445.809,204.506c.06-.01.121-.017.181-.025l11.317-25.128-.275.987L454.5,201.2l-.021.173-.632,5.218c.1.075.19.151.283.23l.675-5.571.021-.173,2.752-22.715-9.4,20.863-.143.318Z" transform="translate(-388.812 -156.097)" fill="#fff"/>
      <path id="Path_53" data-name="Path 53" d="M451.675,210.577l.319-1.144.051-.185,6.2-22.259.275-.987-11.317,25.128a10.364,10.364,0,0,1,4.235.277l.173-.62Z" transform="translate(-390.031 -162.747)" fill="#fff"/>
    </g>
    <path id="Path_54" data-name="Path 54" d="M126.122,335.653A48.768,48.768,0,0,0,212.33,290.11l.5-.389a49.386,49.386,0,0,1-87.243,46.236Z" transform="translate(-105.247 -247.034)" fill="#fff"/>
    <path id="Path_55" data-name="Path 55" d="M101.471,126.894a49.447,49.447,0,0,0-19.9,65.13l.5-.389a48.829,48.829,0,0,1,19.7-64.2" transform="translate(-62.38 -105.248)" fill="#fff"/>
    <path id="Path_56" data-name="Path 56" d="M287.874,83.38a48.837,48.837,0,0,1,62.822,17.4l.59-.224a49.455,49.455,0,0,0-63.777-17.687" transform="translate(-246.248 -62.38)" fill="#fff"/>
  </g>
</svg>
