<svg id="Group_33" data-name="Group 33" xmlns="http://www.w3.org/2000/svg" width="26.176" height="26.176" viewBox="0 0 26.176 26.176">
  <circle id="Ellipse_7" data-name="Ellipse 7" cx="2.618" cy="2.618" r="2.618" transform="translate(11.779 0)" fill="#fff"/>
  <g id="Group_19" data-name="Group 19" transform="translate(15.705 11.779)">
    <g id="Group_18" data-name="Group 18">
      <path id="Path_68" data-name="Path 68" d="M63.568,47.927a3.141,3.141,0,1,1-3.141,3.141,3.185,3.185,0,0,1,3.141-3.141m0-2.094A5.235,5.235,0,1,0,68.8,51.068a5.251,5.251,0,0,0-5.235-5.235Z" transform="translate(-58.333 -45.833)" fill="#fff"/>
    </g>
  </g>
  <g id="Group_21" data-name="Group 21" transform="translate(0 15.705)">
    <g id="Group_20" data-name="Group 20" transform="translate(0 0)">
      <path id="Path_69" data-name="Path 69" d="M13.568,60.427a3.141,3.141,0,1,1-3.141,3.141,3.185,3.185,0,0,1,3.141-3.141m0-2.094A5.235,5.235,0,1,0,18.8,63.568a5.251,5.251,0,0,0-5.235-5.235Z" transform="translate(-8.333 -58.333)" fill="#fff"/>
    </g>
  </g>
  <path id="Path_70" data-name="Path 70" d="M31.121,26.751l5.336.562.275-2.6-4.411-.464-4.1-3.077a1.556,1.556,0,0,0-2.356.262c-1.309,1.44-3.272,3.8-4.319,5.1a2.6,2.6,0,0,0,1.178,4.188l5.38,1.552,2.018,5.937,2.478-.843-2.4-7.053-4.337-2.168,2.717-3.321Z" transform="translate(-16.963 -16.849)" fill="#fff"/>
  <path id="Path_71" data-name="Path 71" d="M10.086,22.834h0a2.052,2.052,0,0,1-.262-2.879l1.7-2.094a3.577,3.577,0,0,1,5.1-.523l.262.262-3.926,4.973A1.953,1.953,0,0,1,10.086,22.834Z" transform="translate(-9.039 -13.934)" fill="#fff"/>
</svg>
