<svg xmlns="http://www.w3.org/2000/svg" width="22.311" height="13.112" viewBox="0 0 22.311 13.112">
  <g id="noun_Mountains_1629438" transform="translate(-12 -82.2)">
    <path id="Path_67" data-name="Path 67" d="M33.85,94.52,27.173,82.96a1.522,1.522,0,0,0-2.635,0l-3.508,6.079L19.4,86.218a1.24,1.24,0,0,0-2.15,0l-4.786,8.3L12,95.312H34.311ZM19.3,88.756l-.4.469-.938-.736-.566.267-1.229.687,1.706-2.951a.524.524,0,0,1,.913,0L20.2,88.95Zm8.617-1-1.059.881L25.6,87.268l-1.851,3.185.146-2.7c-.162,0-1.528.606-1.447.469l2.813-4.874a.735.735,0,0,1,1.269,0l3.282,5.683Z" transform="translate(0 0)" fill="#116e38"/>
  </g>
</svg>
